<svg xmlns="http://www.w3.org/2000/svg" width="2272" height="1872" xml:space="preserve"><switch><g><path fill-rule="evenodd" clip-rule="evenodd" fill="#FFF" d="M0 0h2271.9v1872H0z"/><ellipse fill="#D2CCBE" cx="1111.5" cy="1592.2" rx="843.1" ry="32.8"/><path fill="#4F96B2" d="M1488.6 1018.6h-474.8c-8.1 0-14.7-6.6-14.7-14.7V863.2c0-8.1 6.6-14.7 14.7-14.7h474.8c19.8 0 35.8 16 35.8 35.8v98.6c0 19.7-16 35.7-35.8 35.7z"/><path fill="#63BBD6" d="M1524.1 879.5c-2.1-17.5-15.4-31.1-31.5-31.1H999.1v31.1h525z"/><path fill="#326777" d="M1524.1 987.5c-2.1 17.5-15.4 31.1-31.5 31.1H999.1v-31.1h525z"/><path fill="#9CCBDB" d="M1222.9 848.4H1165c19.8 0 35.8 16 35.8 35.8v98.6c0 19.8-16 35.8-35.8 35.8h57.9c19.8 0 35.8-16 35.8-35.8v-98.6c0-19.7-16-35.8-35.8-35.8z"/><path fill="#9CCBDB" d="M1312.8 848.4h-57.9c19.8 0 35.8 16 35.8 35.8v98.6c0 19.8-16 35.8-35.8 35.8h57.9c19.8 0 35.8-16 35.8-35.8v-98.6c-.1-19.7-16.1-35.8-35.8-35.8z"/><path fill="#418093" d="M1040.2 848.4H799v22.8h11.9v124.5H799v22.8h241.2c40.4 0 73.1-32.7 73.1-73.1v-24c0-40.2-32.7-73-73.1-73z"/><path fill="#F6F4E8" d="M1037.4 871.3H810.8v124.5h226.6c28 0 50.8-22.7 50.8-50.8v-23c0-28-22.8-50.7-50.8-50.7z"/><g fill="#D1CDCA"><path d="M810.8 883.4h245.6v4H810.8zM810.8 908.7h245.6v4H810.8zM810.8 932.1h245.6v4H810.8zM810.8 957.4h245.6v4H810.8zM810.8 979.6h245.6v4H810.8z"/></g><path fill="#96519B" d="m334.6 1542.3 71.1-469.4c1.2-8 8.7-13.6 16.8-12.3l139.1 21.1c8 1.2 13.6 8.7 12.3 16.8l-71.1 469.4c-3 19.5-21.2 33-40.7 30l-97.5-14.8c-19.5-3-33-21.3-30-40.8z"/><path fill="#A854AF" d="M466.8 1598.2c17.7.6 33-10.5 35.5-26.5l73.9-487.9-30.7-4.7-78.7 519.1z"/><path fill="#6E4472" d="M360 1582c-17-4.7-28.4-19.8-26-35.8l73.9-487.9 30.7 4.7-78.6 519z"/><path fill="#BC7EC1" d="m542.6 1305.1 8.7-57.2c-3 19.5-21.2 33-40.7 30l-97.5-14.8c-19.5-3-33-21.2-30-40.7l-8.7 57.2c-3 19.5 10.5 37.8 30 40.7l97.5 14.8c19.5 3 37.8-10.5 40.7-30z"/><path fill="#BC7EC1" d="m529.2 1393.9 8.7-57.2c-3 19.5-21.2 33-40.7 30l-97.5-14.8c-19.5-3-33-21.2-30-40.7l-8.7 57.2c-3 19.5 10.5 37.8 30 40.7l97.5 14.8c19.5 3 37.7-10.5 40.7-30z"/><path fill="#68376D" d="m570 1124.4 36.1-238.5-22.6-3.4-1.8 11.7-123.1-18.6 1.8-11.7-22.6-3.4-36.1 238.5c-6 39.9 21.4 77.2 61.3 83.2l23.7 3.6c40 6 77.2-21.4 83.3-61.4z"/><path fill="#F6F4E8" d="m547.8 1118.2 33.9-224-123.1-18.6-33.9 224c-4.2 27.7 14.9 53.6 42.6 57.8l22.7 3.4c27.8 4.2 53.6-14.8 57.8-42.6z"/><g fill="#D1CDCA"><path d="m569.765 892.453-36.79 242.824-3.955-.599 36.79-242.824zM544.793 888.66l-36.79 242.824-3.955-.599 36.79-242.825zM521.683 885.078l-36.79 242.825-3.956-.6 36.791-242.824zM496.695 881.382l-36.79 242.824-3.955-.599 36.79-242.825zM474.725 878.005l-36.791 242.825-3.955-.6 36.79-242.824z"/></g><g><path fill="#774B1C" d="M860.7 1205.4h526.1c8.1 0 14.7-6.6 14.7-14.7v-157.3c0-8.1-6.6-14.7-14.7-14.7H860.7c-19.8 0-35.8 16-35.8 35.8v115.2c0 19.7 16.1 35.7 35.8 35.7z"/><path fill="#99612E" d="M825.3 1052.7c2.3-19.3 16.9-34.1 34.6-34.1h541.7v34.1H825.3z"/><path fill="#543315" d="M825.3 1171.3c2.3 19.3 16.9 34.1 34.6 34.1h541.7v-34.1H825.3z"/><path fill="#B77C4B" d="M913.5 1018.6h18.7c-21.7 0-39.3 17.6-39.3 39.3v108.2c0 21.7 17.6 39.3 39.3 39.3h-18.7c-21.7 0-39.3-17.6-39.3-39.3v-108.2c0-21.7 17.6-39.3 39.3-39.3z"/><path fill="#B77C4B" d="M964.2 1018.6h18.7c-21.7 0-39.3 17.6-39.3 39.3v108.2c0 21.7 17.6 39.3 39.3 39.3h-18.7c-21.7 0-39.3-17.6-39.3-39.3v-108.2c0-21.7 17.6-39.3 39.3-39.3zM1201 1018.6h18.7c-21.7 0-39.3 17.6-39.3 39.3v108.2c0 21.7 17.6 39.3 39.3 39.3H1201c-21.7 0-39.3-17.6-39.3-39.3v-108.2c0-21.7 17.6-39.3 39.3-39.3z"/><path fill="#B77C4B" d="M1251.7 1018.6h18.7c-21.7 0-39.3 17.6-39.3 39.3v108.2c0 21.7 17.6 39.3 39.3 39.3h-18.7c-21.7 0-39.3-17.6-39.3-39.3v-108.2c0-21.7 17.6-39.3 39.3-39.3z"/><path fill="#513114" d="M1356.4 1018.6h264.8v25.1h-13v136.6h13v25.1h-264.8c-44.3 0-80.2-35.9-80.2-80.2v-26.3c-.1-44.4 35.9-80.3 80.2-80.3z"/><path fill="#F7EEC4" d="M1359.5 1043.7h248.7v136.6h-248.7c-30.8 0-55.7-24.9-55.7-55.7v-25.2c-.1-30.8 24.9-55.7 55.7-55.7z"/><path fill="#D3C99F" d="M1338.6 1057h269.6v4.4h-269.6zM1338.6 1084.8h269.6v4.4h-269.6zM1338.6 1110.4h269.6v4.4h-269.6zM1338.6 1138.2h269.6v4.4h-269.6zM1338.6 1162.6h269.6v4.4h-269.6z"/></g><g><path fill="#DD9F32" d="M1536.3 697.2h-490.5c-8.1 0-14.7-6.6-14.7-14.7V541.8c0-8.1 6.6-14.7 14.7-14.7h490.5c11.1 0 20.1 9 20.1 20.1v129.9c0 11.1-9 20.1-20.1 20.1z"/><path fill="#EDAB4C" d="M1035.4 531.4V564h521.1v-16.9c0-11.1-9-20.1-20.1-20.1h-490.5c-4.1.1-7.9 1.7-10.5 4.4z"/><path fill="#C48622" d="M1035.4 692.8v-32.6h521.1v16.9c0 11.1-9 20.1-20.1 20.1h-490.5c-4.1 0-7.9-1.7-10.5-4.4z"/><path fill="#A36B19" d="M1123.1 527.1H831v22.8h11.9v124.5H831v22.8h292.1c12.3 0 22.2-9.9 22.2-22.2V549.3c.1-12.3-9.9-22.2-22.2-22.2z"/><path fill="#F6F4E8" d="M1107 549.9H842.9v124.5H1107c7.3 0 13.2-5.9 13.2-13.2v-98.1c0-7.3-5.9-13.2-13.2-13.2z"/><g fill="#D1CDCA"><path d="M842.9 562.1h245.6v4H842.9zM842.9 587.3h245.6v4H842.9zM842.9 610.7h245.6v4H842.9zM842.9 636h245.6v4H842.9zM842.9 658.2h245.6v4H842.9z"/></g><path fill="#E6B765" d="M1478.1 635.5h-170.8c-7.5 0-13.6-6.1-13.6-13.6v-22.3c0-7.5 6.1-13.6 13.6-13.6h170.8c7.5 0 13.6 6.1 13.6 13.6v22.3c0 7.5-6.1 13.6-13.6 13.6zM1234.2 635.5h-22.3c-7.5 0-13.6-6.1-13.6-13.6v-22.3c0-7.5 6.1-13.6 13.6-13.6h22.3c7.5 0 13.6 6.1 13.6 13.6v22.3c0 7.5-6.1 13.6-13.6 13.6z"/></g><g><path fill="#EF6352" d="M1639.4 1595.2h-556c-9.2 0-16.7-7.5-16.7-16.7V1419c0-9.2 7.5-16.7 16.7-16.7h556c12.6 0 22.8 10.2 22.8 22.8v147.3c0 12.5-10.2 22.8-22.8 22.8z"/><path fill="#FC877E" d="M1071.5 1407.2v37h590.7V1425c0-12.6-10.2-22.8-22.8-22.8h-556c-4.6 0-8.8 1.9-11.9 5z"/><path fill="#D35248" d="M1071.5 1590.2v-37h590.7v19.2c0 12.6-10.2 22.8-22.8 22.8h-556c-4.6 0-8.8-2-11.9-5z"/><path fill="#CC4E44" d="M1171 1402.2H839.9v25.9h13.4v141.1h-13.4v25.9H1171c13.9 0 25.2-11.3 25.2-25.2v-142.5c0-13.9-11.3-25.2-25.2-25.2z"/><path fill="#F6F4E8" d="M1152.7 1428.1H853.3v141.1h299.4c8.3 0 15-6.7 15-15V1443c0-8.2-6.7-14.9-15-14.9z"/><g fill="#D1CDCA"><path d="M853.3 1441.9h278.4v4.6H853.3zM853.3 1470.6h278.4v4.6H853.3zM853.3 1497.1h278.4v4.6H853.3zM853.3 1525.7h278.4v4.6H853.3zM853.3 1550.9h278.4v4.6H853.3z"/></g><path fill="#F28A7D" d="M1573.5 1525.1h-193.6c-8.5 0-15.4-6.9-15.4-15.4v-25.3c0-8.5 6.9-15.4 15.4-15.4h193.6c8.5 0 15.4 6.9 15.4 15.4v25.3c0 8.5-6.9 15.4-15.4 15.4zM1296.9 1525.1h-25.3c-8.5 0-15.4-6.9-15.4-15.4v-25.3c0-8.5 6.9-15.4 15.4-15.4h25.3c8.5 0 15.4 6.9 15.4 15.4v25.3c0 8.5-6.9 15.4-15.4 15.4z"/></g><g><path fill="#6E995B" d="M1549.4 848.4h-432c-8.1 0-14.7-6.6-14.7-14.7V711.9c0-8.1 6.6-14.7 14.7-14.7h432c11.1 0 20.1 9 20.1 20.1v111c0 11.1-9 20.1-20.1 20.1z"/><path fill="#8EBC77" d="M1106.5 701.1v29h463v-15c0-9.9-8-17.9-17.9-17.9h-435.8c-3.6 0-6.9 1.5-9.3 3.9z"/><path fill="#4C6D3A" d="M1106.5 844.5v-29h463v15c0 9.9-8 17.9-17.9 17.9h-435.8c-3.6 0-6.9-1.5-9.3-3.9z"/><path fill="#375127" d="M1184.5 697.2H924.9v20.3h10.5v110.6h-10.5v20.3h259.6c10.9 0 19.7-8.8 19.7-19.7V717c0-10.9-8.8-19.8-19.7-19.8z"/><path fill="#F6F4E8" d="M1170.2 717.5H935.4v110.6h234.7c6.5 0 11.7-5.3 11.7-11.7v-87.2c.1-6.4-5.2-11.7-11.6-11.7z"/><g fill="#D1CDCA"><path d="M935.4 739.5h218.2v3.6H935.4zM935.4 765h218.2v3.6H935.4zM935.4 787.5h218.2v3.6H935.4zM935.4 807.2h218.2v3.6H935.4z"/></g><path fill="#B4DBA1" d="M1495.2 793.6H1353c-9.3 0-16.8-7.5-16.8-16.8v-10.3c0-9.3 7.5-16.8 16.8-16.8h142.2c9.3 0 16.8 7.5 16.8 16.8v10.3c0 9.2-7.5 16.8-16.8 16.8zM1278.4 793.6h-10.3c-9.3 0-16.8-7.5-16.8-16.8v-10.3c0-9.3 7.5-16.8 16.8-16.8h10.3c9.3 0 16.8 7.5 16.8 16.8v10.3c.1 9.2-7.5 16.8-16.8 16.8z"/></g><g><path fill="#22B3B8" d="M609.3 1570.1V1033c0-10.1 8.2-18.3 18.3-18.3H779c10.1 0 18.3 8.2 18.3 18.3v537.2c0 13.8-11.2 25-25 25h-138c-13.8 0-25-11.2-25-25.1z"/><path fill="#47D6D6" d="M792.5 1019.4h-36.1v575.8h18.7c12.3 0 22.2-10 22.2-22.2v-542c0-4.6-1.8-8.7-4.8-11.6z"/><path fill="#199B9B" d="M614.1 1019.4h36.1v575.8h-18.7c-12.3 0-22.2-10-22.2-22.2v-542c0-4.6 1.9-8.7 4.8-11.6z"/><path fill="#188481" d="M797.3 1116.3V793.6h-25.2v13.1H634.5v-13.1h-25.2v322.8c0 13.6 11 24.6 24.6 24.6h138.9c13.6-.1 24.5-11.1 24.5-24.7z"/><path fill="#F6F4E8" d="M772.1 1098.5V806.7H634.5v291.9c0 8.1 6.5 14.6 14.6 14.6h108.4c8.1-.1 14.6-6.6 14.6-14.7z"/><g fill="#D1CDCA"><path d="M740.4 806.7h4.4v271.4h-4.4zM708.6 806.7h4.4v271.4h-4.4zM680.7 806.7h4.4v271.4h-4.4zM656.1 806.7h4.4v271.4h-4.4z"/></g><path fill="#F9C03B" d="M677.6 1492.6v-262.5c0-17.2 9.4-31.1 20.9-31.1h12.8c11.6 0 20.9 13.9 20.9 31.1v262.5c0 17.2-9.4 31.1-20.9 31.1h-12.8c-11.6-.1-20.9-14-20.9-31.1z"/></g><g><path fill="#EF6352" d="M1073.6 527.1h367.7V414.6h-367.7c-13.1 0-23.7 10.6-23.7 23.7v65.1c0 13 10.6 23.7 23.7 23.7z"/><path fill="#F58172" d="M1050.1 435.1c1.5-11.6 11.4-20.6 23.5-20.6h367.7v20.6h-391.2z"/><path fill="#CC4040" d="M1050.1 506.5c1.5 11.6 11.4 20.6 23.5 20.6h367.7v-20.6h-391.2z"/><path fill="#F6F4E8" d="M1435 527.1h252.7V414.6H1435c-13.1 0-23.7 10.6-23.7 23.7v65.1c0 13 10.6 23.7 23.7 23.7z"/><path fill="#D1CDCA" d="M1427.6 440.5h249.7v2.4h-249.7zM1427.6 455.8h249.7v2.4h-249.7zM1427.6 470h249.7v2.4h-249.7zM1427.6 485.2h249.7v2.4h-249.7zM1427.6 498.6h249.7v2.4h-249.7z"/><path fill="#E24D46" d="M1435 414.6h276.7v14.8h-258c-13.1 0-23.7 10.6-23.7 23.7v35.4c0 13.1 10.6 23.7 23.7 23.7h258V527H1435c-13.1 0-23.7-10.6-23.7-23.7v-65.1c0-13 10.6-23.6 23.7-23.6z"/><path fill="#F29891" d="M1141.6 452.1h185.8v31.8h-185.8z"/></g><g><path fill="#EF788B" d="M1514.2 414.6H968.5c-11.4 0-20.7-9.3-20.7-20.7v-83.5c0-11.4 9.3-20.7 20.7-20.7h545.7c11.4 0 20.7 9.3 20.7 20.7v83.5c0 11.4-9.2 20.7-20.7 20.7z"/><path fill="#D16278" d="M1534.9 393.9v-1.8H947.8v1.8c0 11.4 9.3 20.7 20.7 20.7h545.7c11.5 0 20.7-9.3 20.7-20.7z"/><g fill="#F2C0CC"><path d="M1039.8 289.7h38.1v124.9h-38.1zM1102.7 289.7h38.1v124.9h-38.1zM1326.6 289.7h38.1v124.9h-38.1zM1389.5 289.7h38.1v124.9h-38.1z"/></g></g><g><path fill="#8FB8E6" d="m1899.8 1505.2-73.6-384.9-28 5.3 2.8 14.5-152.5 29.2-2.8-14.5-27.9 5.3 73.6 385z"/><path fill="#F6F4E8" d="m1800.94 1140.077 64.94 339.645-152.437 29.146-64.941-339.644z"/><g fill="#D1CDCA"><path d="m1786.054 1142.89 57.524 300.848-4.911.939-57.524-300.848zM1755.033 1148.877l57.524 300.848-4.911.94-57.524-300.849zM1726.458 1154.28l57.523 300.848-4.91.939-57.524-300.848zM1695.436 1160.265l57.523 300.848-4.911.94-57.523-300.849zM1668.244 1165.459l57.523 300.848-4.911.939-57.523-300.848z"/></g><path fill="#79A7D1" d="m1697.7 1577.9-12.2-63.6 208.4-39.9 12.2 63.6c2 10.7-5 21-15.6 23l-169.7 32.5c-10.8 2.1-21.1-4.9-23.1-15.6z"/><path fill="#ACCCE8" d="m1853.52 1534.302 6.235 32.61-105.095 20.094-6.235-32.609z"/></g><g><path fill="#F6F4E8" d="M1017.6 1231.8H1597v144h-579.4z"/><g fill="#D1CDCA"><path d="M1017.6 1245.9H1597v4.6h-579.4zM1017.6 1275.1H1597v4.6h-579.4zM1017.6 1302.2H1597v4.6h-579.4zM1017.6 1331.4H1597v4.6h-579.4zM1017.6 1357.1H1597v4.6h-579.4z"/></g><path fill="#D7CE93" d="M1614.1 1231.8v-26.4h-610.2v26.4h23zM1026.9 1375.8h-23v26.4h610.2v-26.4z"/></g></g></switch></svg>