<?xml version="1.0" encoding="UTF-8"?>
<svg width="80px" height="80px" viewBox="0 0 80 80" version="1.1" xmlns="http://www.w3.org/2000/svg" xmlns:xlink="http://www.w3.org/1999/xlink">
    <title>Artboard</title>
    <g id="Artboard" stroke="none" stroke-width="1" fill="none" fill-rule="evenodd">
        <g id="icon-stats" transform="translate(22.000000, 32.000000)"></g>
        <circle id="Oval" fill="#F5F5FF" fill-rule="nonzero" cx="40" cy="40" r="40"></circle>
        <path d="M59.4762,20 C60.3554,20 61.0685,20.7131 61.0685,21.5923 L61.0685,21.5923 L61.0685,55.8564 L62.4077,55.8564 C63.2869,55.8564 64,56.5691 64,57.4483 C64,58.3279 63.2869,59.0406 62.4077,59.0406 L62.4077,59.0406 L17.5923,59.0406 C16.7127,59.0406 16,58.3279 16,57.4483 C16,56.5691 16.7127,55.8564 17.5923,55.8564 L17.5923,55.8564 L18.9307,55.8564 L18.9307,30.5922 C18.9307,29.7129 19.6434,29.0003 20.523,29.0003 L20.523,29.0003 L28.7706,29.0003 C29.6498,29.0003 30.3629,29.7129 30.3629,30.5922 L30.3629,30.5922 L30.3629,55.8564 L34.2839,55.8564 L34.2839,33.5168 C34.2839,32.6376 34.9966,31.9245 35.8758,31.9245 L35.8758,31.9245 L44.1238,31.9245 C45.003,31.9245 45.7157,32.6376 45.7157,33.5168 L45.7157,33.5168 L45.7157,55.8564 L49.6363,55.8564 L49.6363,21.5923 C49.6363,20.7131 50.3494,20 51.2286,20 L51.2286,20 Z M57.8843,23.1842 L52.8205,23.1842 L52.8205,55.8564 L57.8843,55.8564 L57.8843,23.1842 Z M42.5315,35.1087 L37.4681,35.1087 L37.4681,55.8564 L42.5315,55.8564 L42.5315,35.1087 Z M27.1783,32.1844 L22.1149,32.1844 L22.1149,55.8564 L27.1783,55.8564 L27.1783,32.1844 Z" id="Combined-Shape" fill="#5C1DFF" fill-rule="nonzero"></path>
    </g>
</svg>