<svg width="64" height="58" viewBox="0 0 64 58" fill="none" xmlns="http://www.w3.org/2000/svg">
<path d="M32 7.5C33.0356 7.5 33.875 6.66064 33.875 5.625V1.875C33.875 0.839355 33.0356 0 32 0C30.9644 0 30.125 0.839355 30.125 1.875V5.625C30.125 6.66064 30.9644 7.5 32 7.5Z" fill="white"/>
<path d="M40.8257 10.7007L44.5757 6.95068C45.3081 6.21826 45.3081 5.03125 44.5757 4.29932C43.8438 3.56689 42.6562 3.56689 41.9243 4.29932L38.1743 8.04932C37.4419 8.78125 37.4419 9.96826 38.1743 10.7007C38.9062 11.4331 40.0938 11.4331 40.8257 10.7007Z" fill="white"/>
<path d="M23.1743 10.7007C23.9062 11.4331 25.0938 11.4331 25.8257 10.7007C26.5581 9.96826 26.5581 8.78125 25.8257 8.04932L22.0757 4.29932C21.3438 3.56689 20.1567 3.56689 19.4243 4.29932C18.6919 5.03125 18.6919 6.21826 19.4243 6.95068L23.1743 10.7007Z" fill="white"/>
<path d="M50.875 34H54.625C59.7944 34 64 38.2056 64 43.375V51.125C64 52.1606 63.1606 53 62.125 53C61.5 53.0208 60.25 52.675 60.25 51.125V43.375C60.25 40.2734 57.7266 37.75 54.625 37.75H50.875C46.374 37.75 42.1157 35.9707 38.8853 32.7402C37.793 31.6475 36.8672 30.4375 36.1196 29.1411C35.6143 30.5093 34.9863 31.8345 34.2417 33.0996C37.4565 37.3955 42.2012 40.3291 47.4268 41.2119C48.3286 41.3642 48.9888 42.145 48.9893 43.0596V56.125C48.9928 56.75 48.625 58 47.125 58C46.0898 58 45.2505 57.1611 45.25 56.1259L45.2402 44.5913C40.0801 43.3603 35.4111 40.4306 31.9937 36.3037C31.9053 36.4106 31.8169 36.5176 31.7266 36.623C28.3198 40.6074 23.7612 43.3984 18.7598 44.5918L18.75 56.1259C18.7495 57.1611 17.9102 58 16.875 58C16.2536 58.0215 15.0107 57.6767 15.0107 56.1259V43.0596C15.0112 42.145 15.6714 41.3642 16.5732 41.2119C26.437 39.5459 33.875 30.749 33.875 20.75C33.875 19.7163 33.0337 18.875 32 18.875C30.9663 18.875 30.125 19.7163 30.125 20.75C30.125 25.251 28.3457 29.5093 25.1147 32.7397C21.8843 35.9707 17.626 37.75 13.125 37.75H9.375C6.27344 37.75 3.75 40.2734 3.75 43.375V51.125C3.75 52.625 2.5 53 1.875 53C0.839355 53 0 52.1606 0 51.125V43.375C0 38.2056 4.20557 34 9.375 34H13.125C20.3071 34 26.375 27.9321 26.375 20.75C26.375 17.6484 28.8984 15.125 32 15.125C35.1016 15.125 37.625 17.6484 37.625 20.75C37.625 27.9321 43.6929 34 50.875 34Z" fill="white"/>
<path d="M10.1139 19C5.08837 19 1 23.0885 1 28.1139C1 33.1393 5.0885 37.2278 10.1139 37.2278C15.1394 37.2278 19.2278 33.1393 19.2278 28.1139C19.2278 23.0885 15.1394 19 10.1139 19ZM10.1139 33.1771C7.32162 33.1771 5.05062 30.9061 5.05062 28.1139C5.05062 25.3216 7.32162 23.0506 10.1139 23.0506C12.9061 23.0506 15.1771 25.3216 15.1771 28.1139C15.1771 30.9061 12.9061 33.1771 10.1139 33.1771Z" fill="white"/>
<path d="M54.1139 19C49.0884 19 45 23.0885 45 28.1139C45 33.1393 49.0885 37.2278 54.1139 37.2278C59.1394 37.2278 63.2278 33.1393 63.2278 28.1139C63.2278 23.0885 59.1394 19 54.1139 19ZM54.1139 33.1771C51.3216 33.1771 49.0506 30.9061 49.0506 28.1139C49.0506 25.3216 51.3216 23.0506 54.1139 23.0506C56.9061 23.0506 59.1771 25.3216 59.1771 28.1139C59.1771 30.9061 56.9061 33.1771 54.1139 33.1771Z" fill="white"/>
</svg>
