<svg id="Capa_1" enable-background="new 0 0 512 512" height="512" viewBox="0 0 512 512" width="512" xmlns="http://www.w3.org/2000/svg"><g><path d="m512 256c0 37.84-8.21 73.76-22.95 106.07-5.83 12.81-104.32 115.35-110.23 118.59-28.998 15.891-61.406 26.329-95.849 29.936-8.864.928-217.543-104.366-278.35-205.924-3.033-15.758-4.621-32.03-4.621-48.672 0-141.38 114.62-256 256-256s256 114.62 256 256z" fill="#ffd064"/><g><g><path d="m489.05 362.07c-13.83 30.36-33.43 57.53-57.38 80.13v-96.17h26.93c12.64 0 23.8 6.36 30.45 16.04z" fill="#da387d"/><path d="m468.58 382.95v15.73c-10.67 15.86-23.06 30.45-36.91 43.52-2.92 2.76-5.91 5.45-8.96 8.07-3.28 2.82-6.64-5.455-10.07-2.805-10.72-6.46-17.89-7.195-17.89-20.625v-43.89c0-20.39 16.53-36.92 36.92-36.92 10.19 0 19.42 4.13 26.1 10.81s10.81 15.92 10.81 26.11z" fill="#c3247d"/><path d="m431.667 376.035h-109.739v57.719h109.739c3.811 0 6.912-3.101 6.912-6.912v-43.896c0-3.81-3.101-6.911-6.912-6.911z" fill="#da387d"/><path d="m422.71 423.52v26.75c-13.48 11.59-28.19 21.79-43.89 30.39v-74.82h26.21c9.77 0 17.68 7.91 17.68 17.68z" fill="#ffddf1"/><path d="m396.11 423.52v46.76c-5.61 3.68-11.38 7.14-17.29 10.38v-74.82h10.33c3.84 0 6.96 7.91 6.96 17.68z" fill="#ffceec"/><path d="m422.711 381.342v42.18h-43.89v-59.86h26.21c9.77 0 17.68 7.91 17.68 17.68z" fill="#453d81"/><path d="m348.864 463.754h-26.936v-117.72h26.936c20.386 0 36.912 16.526 36.912 36.912v43.895c0 20.387-16.526 36.913-36.912 36.913z" fill="#da387d"/><path d="m321.928 463.754c-20.386 0-36.912-16.526-36.912-36.912v-43.895c0-20.386 16.526-36.912 36.912-36.912 20.386 0 36.912 16.526 36.912 36.912v43.895c0 20.386-16.526 36.912-36.912 36.912z" fill="#c3247d"/></g><circle cx="329.836" cy="149.616" fill="#f9f6f9" r="34.667"/><circle cx="325.192" cy="149.616" fill="#453d81" r="20.221"/><circle cx="328.395" cy="178.969" fill="#ffddf1" r="34.667"/><path d="m237.389 50.243c-20.937 0-37.91 16.973-37.91 37.91v45.891h75.819v-45.891c.001-20.937-16.972-37.91-37.909-37.91z" fill="#ac80dd"/><path d="m248.7 51.953c-15.42 4.82-26.61 19.21-26.61 36.2v45.89h-22.61v-45.89c0-20.93 16.97-37.91 37.91-37.91 3.94 0 7.73.6 11.31 1.71z" fill="#9d66d5"/><g><path d="m310.314 165.988-8.354-159.122c-.399-7.595-10.742-9.515-13.839-2.568l-64.895 145.528z" fill="#b1e4f9"/><g fill="#90d8f9"><path d="m296.05.128c-.812-.151-1.962 1.517-2.869 5.11l-38.043 150.511-31.912-5.923 64.888-145.529c1.551-3.473 4.919-4.729 7.936-4.169z"/><path d="m230.655 138.815c-3.965-.736-7.227-3.882-7.913-8.091-.873-5.361 2.765-10.415 8.126-11.289l75.286-12.269c5.363-.874 10.415 2.765 11.289 8.126s-2.765 10.415-8.126 11.289l-75.286 12.269c-1.152.187-2.29.166-3.376-.035z"/><path d="m252.849 89.065c-3.964-.736-7.226-3.882-7.912-8.09-.874-5.361 2.763-10.416 8.124-11.29l50.684-8.266c5.36-.874 10.415 2.763 11.29 8.124.874 5.361-2.763 10.416-8.124 11.29l-50.684 8.266c-1.153.188-2.292.167-3.378-.034z"/><path d="m275.034 39.312c-3.965-.736-7.227-3.883-7.913-8.092-.873-5.361 2.765-10.415 8.126-11.288l26.104-4.252c5.36-.875 10.415 2.765 11.288 8.126s-2.765 10.415-8.126 11.288l-26.104 4.252c-1.152.188-2.29.167-3.375-.034z"/></g></g><path d="m167.134 57.892c29.306 0 53.064 23.758 53.064 53.064s-23.758 53.064-53.064 53.064z" fill="#ffceec"/><path d="m266.48 184.59h-51.03c.14 1.88.24 3.78.24 5.69 0 37.45-28.15 68.3-64.44 72.59 1.04 4.91 1.59 9.99 1.59 15.21 0 32.48-21.2 60.01-50.51 69.53 6.13 11.76 9.61 25.12 9.61 39.29 0 23.83 17.652 18.248 1.882 33.698-8.64-7.64-15.878-5.7-23.408-14.43-5.13-5.95-38.314 4.832-42.894-1.578-20.93-29.31-35.83-63.22-42.89-99.92 2.1-.58 4.24-1.07 6.41-1.47-2.87-7.83-4.43-16.3-4.43-25.12 0-37.45 28.15-68.3 64.44-72.59-1.04-4.91-1.59-9.99-1.59-15.21 0-40.38 32.73-73.11 73.11-73.11h92.08c17.58 0 31.83 14.25 31.83 31.82z" fill="#ac80dd"/><path d="m120.33 190.28c0 5.22.56 10.3 1.6 15.21-36.29 4.29-64.45 35.14-64.45 72.59 0 8.82 1.57 17.29 4.44 25.12-20.08 3.75-37.68 14.54-50.14 29.72-2.91-9.2-5.3-18.63-7.15-28.25 2.1-.58 4.24-1.07 6.41-1.47-2.87-7.83-4.43-16.3-4.43-25.12 0-37.45 28.15-68.3 64.44-72.59-1.04-4.91-1.59-9.99-1.59-15.21 0-40.38 32.73-73.11 73.11-73.11h50.88c-40.38 0-73.12 32.73-73.12 73.11z" fill="#9d66d5"/><path d="m478.52 186.17v92.69c0 8.08-3.28 15.39-8.57 20.69s-12.61 8.57-20.68 8.57c-15.52 0-28.21-12.09-29.19-27.36l-65.13 7.61c-6.82 17.12-18.59 31.72-33.54 42.05s-33.09 16.38-52.64 16.38c-19.76 0-38.07-6.18-53.11-16.71-15.98-11.18-28.27-27.28-34.68-46.1-3.2-9.38-4.94-19.45-4.94-29.92v-100.46h269.92c17.98 0 32.56 14.58 32.56 32.56z" fill="#ffddf1"/><path d="m282.97 304.03v206.56c-5.58.59-11.21.99-16.89 1.21-3.34.13-6.7.2-10.08.2-5.55 0-11.06-.18-16.52-.53-5.82-.36-11.58-.93-17.29-1.69-63.75-8.41-120.1-40.28-160.1-86.65l113.96-269.52z" fill="#ffddf1"/><path d="m197.67 294.87-84.84 173.38c-18.85-12.75-35.92-27.94-50.74-45.12-5.13-5.95-9.99-12.13-14.57-18.54l128.53-250.98 18.48 26z" fill="#ffceec"/><path d="m186.46 153.61c0 6.49-1.01 12.74-2.9 18.61-1.77 5.55-4.32 10.76-7.52 15.49-10.96 16.22-29.52 26.89-50.58 26.89-33.68 0-60.99-27.31-60.99-60.99z" fill="#ffceec"/><path d="m430.578 203.283c-6.097 0-11.039-4.942-11.039-11.039 0-6.097 4.942-11.039 11.039-11.039 6.097 0 11.039 4.942 11.039 11.039 0 6.097-4.942 11.039-11.039 11.039z" fill="#eaaadd"/><path d="m462.52 203.283c-6.097 0-11.039-4.942-11.039-11.039 0-6.097 4.942-11.039 11.039-11.039 6.097 0 11.039 4.942 11.039 11.039 0 6.097-4.943 11.039-11.039 11.039z" fill="#eaaadd"/><path d="m281.882 345.876c-4.28.61-8.66.92-13.11.92-51.21 0-92.73-41.52-92.73-92.73v-100.46h26.16v100.46c0 46.78 34.65 85.47 79.68 91.81z" fill="#ffceec"/><circle cx="250.358" cy="149.616" fill="#f9f6f9" r="34.667"/><circle cx="251.257" cy="149.616" fill="#453d81" r="20.221"/><path d="m467.58 221.15c0 5.6-4.54 10.14-10.14 10.14h-65.12c.07.71.11 1.43.11 2.16 0 2.88-.54 5.64-1.54 8.17-3.26 8.36-11.39 14.28-20.91 14.28h-13.47c-.98 0-1.94-.06-2.88-.19-5.04-.64-9.57-2.96-12.99-6.39-2.17-2.17-3.9-4.79-5.03-7.7-.99-2.53-1.54-5.29-1.54-8.17 0-.73.03-1.45.1-2.16 1-10.43 9.13-18.78 19.46-20.1.94-.13 1.9-.19 2.88-.19h100.93c2.8 0 5.34 1.14 7.17 2.97 1.83 1.84 2.97 4.37 2.97 7.18z" fill="#f9f6f9"/><circle cx="250.358" cy="186.893" fill="#ffddf1" r="39.158"/><g fill="#dddaec"><path d="m364.72 211v44.9h-8.21c-.98 0-1.94-.06-2.88-.19v-44.52c.94-.13 1.9-.19 2.88-.19z"/><path d="m392.65 211h11.08v20.29h-11.08z"/><path d="m436.1 211h11.09v20.29h-11.09z"/><path d="m392.43 233.45c0 2.88-.54 5.64-1.54 8.17h-55.28c-.99-2.53-1.54-5.29-1.54-8.17 0-.73.03-1.45.1-2.16h58.15c.07.71.11 1.43.11 2.16z"/></g><g><path d="m301.976 452.453h-26.936v-117.72h26.936c20.386 0 36.912 16.526 36.912 36.912v43.896c0 20.386-16.526 36.912-36.912 36.912z" fill="#ac80dd"/><path d="m275.04 452.453c-20.386 0-36.912-16.526-36.912-36.912v-43.896c0-20.386 16.526-36.912 36.912-36.912 20.386 0 36.912 16.526 36.912 36.912v43.896c0 20.386-16.526 36.912-36.912 36.912z" fill="#9d66d5"/><path d="m275.04 364.733h-109.738v57.719h109.738c3.811 0 6.912-3.101 6.912-6.912v-43.896c0-3.81-3.101-6.911-6.912-6.911z" fill="#ac80dd"/><path d="m266.08 412.22v99.58c-3.34.13-6.7.2-10.08.2-11.46 0-22.75-.75-33.81-2.22v-115.24h26.21c9.77 0 17.68 7.91 17.68 17.68z" fill="#ffddf1"/><path d="m239.48 412.22v99.25c-5.82-.36-11.58-.93-17.29-1.69v-115.24h10.33c3.85 0 6.96 7.91 6.96 17.68z" fill="#ffceec"/><path d="m266.084 370.04v42.18h-43.89v-59.86h26.21c9.77 0 17.68 7.91 17.68 17.68z" fill="#453d81"/><path d="m192.237 452.453h-26.936v-117.72h26.936c20.386 0 36.912 16.526 36.912 36.912v43.896c0 20.386-16.526 36.912-36.912 36.912z" fill="#ac80dd"/><path d="m165.301 452.453c-20.386 0-36.912-16.526-36.912-36.912v-43.896c0-20.386 16.526-36.912 36.912-36.912 20.386 0 36.912 16.526 36.912 36.912v43.896c0 20.386-16.526 36.912-36.912 36.912z" fill="#9d66d5"/><path d="m165.302 422.453c-3.812 0-6.912-3.101-6.912-6.912v-43.896c0-3.811 3.101-6.912 6.912-6.912s6.912 3.101 6.912 6.912v43.896c-.001 3.811-3.101 6.912-6.912 6.912z" fill="#3342aa"/></g><g><path d="m203.396 137.554-18.768-18.768-18.768 18.768c-10.365 10.365-10.365 27.17 0 37.536 10.365 10.365 27.17 10.365 37.536 0 10.366-10.365 10.366-27.171 0-37.536z" fill="#b1e4f9"/><path d="m184.633 182.864c-6.795 0-13.589-2.591-18.772-7.774-10.36-10.366-10.36-27.168 0-37.534l18.772-18.767-5.608 18.767c-3.094 10.366-3.094 27.168 0 37.534 1.545 5.183 3.576 7.774 5.608 7.774z" fill="#90d8f9"/></g><g><path d="m167.684 206.898-18.768-18.768-18.768 18.768c-10.365 10.365-10.365 27.17 0 37.536 10.365 10.365 27.17 10.365 37.536 0 10.366-10.366 10.366-27.171 0-37.536z" fill="#b1e4f9"/><path d="m148.921 252.208c-6.795 0-13.589-2.591-18.772-7.774-10.36-10.366-10.36-27.168 0-37.534l18.772-18.767-5.608 18.767c-3.094 10.366-3.094 27.168 0 37.534 1.545 5.182 3.576 7.774 5.608 7.774z" fill="#90d8f9"/></g></g></g></svg>
