<svg fill="none" xmlns="http://www.w3.org/2000/svg" viewBox="0 0 80 80"><circle opacity=".05" cx="40" cy="40" r="40" fill="#2ECC71"/><path d="M40 22.625c.777 0 1.406-.63 1.406-1.406v-2.813a1.406 1.406 0 10-2.812 0v2.813c0 .776.63 1.406 1.406 1.406zM46.62 25.026l2.812-2.813a1.406 1.406 0 10-1.989-1.989l-2.812 2.813a1.406 1.406 0 101.988 1.989zM33.38 25.026a1.406 1.406 0 101.99-1.989l-2.813-2.813a1.406 1.406 0 10-1.989 1.989l2.813 2.813zM54.156 42.5h2.813A7.04 7.04 0 0164 49.531v5.813c0 .776-.63 1.406-1.406 1.406-.469.016-1.407-.244-1.407-1.406V49.53a4.224 4.224 0 00-4.218-4.218h-2.813c-3.375 0-6.57-1.335-8.992-3.758a13.018 13.018 0 01-2.074-2.7 18.474 18.474 0 01-1.409 2.97c2.411 3.222 5.97 5.422 9.89 6.084.675.114 1.17.7 1.17 1.386v9.799c.004.468-.272 1.406-1.397 1.406-.777 0-1.406-.63-1.407-1.406l-.007-8.65c-3.87-.924-7.372-3.121-9.935-6.216-.066.08-.132.16-.2.24-2.555 2.988-5.974 5.08-9.725 5.976l-.008 8.65c0 .777-.63 1.406-1.406 1.406-.466.016-1.398-.242-1.398-1.406v-9.8c0-.685.495-1.27 1.172-1.385 7.398-1.25 12.976-7.847 12.976-15.346 0-.776-.63-1.407-1.406-1.407-.775 0-1.406.631-1.406 1.407 0 3.375-1.335 6.569-3.758 8.992-2.423 2.423-5.616 3.758-8.992 3.758H23.03a4.224 4.224 0 00-4.218 4.218v5.813c0 1.125-.938 1.406-1.407 1.406-.776 0-1.406-.63-1.406-1.406V49.53a7.04 7.04 0 017.031-7.031h2.813c5.386 0 9.937-4.55 9.937-9.938A4.224 4.224 0 0140 28.345a4.224 4.224 0 014.219 4.218c0 5.387 4.55 9.938 9.937 9.938z" fill="#2ECC71"/><path d="M23.585 31.25a6.843 6.843 0 00-6.835 6.835 6.843 6.843 0 006.835 6.836 6.843 6.843 0 006.836-6.836 6.843 6.843 0 00-6.836-6.835zm0 10.633a3.801 3.801 0 01-3.797-3.798 3.801 3.801 0 013.797-3.797 3.801 3.801 0 013.798 3.797 3.801 3.801 0 01-3.798 3.798zM56.585 31.25a6.843 6.843 0 00-6.835 6.835 6.843 6.843 0 006.835 6.836 6.843 6.843 0 006.836-6.836 6.843 6.843 0 00-6.836-6.835zm0 10.633a3.801 3.801 0 01-3.797-3.798 3.801 3.801 0 013.797-3.797 3.801 3.801 0 013.798 3.797 3.801 3.801 0 01-3.798 3.798z" fill="#2ECC71"/></svg>